<svg xmlns="http://www.w3.org/2000/svg" viewBox="0 0 256 256">
  <rect width="256" height="256" fill="#1e3a5f"/>
  <rect x="64" y="80" width="128" height="96" rx="8" fill="#2c5282"/>
  <rect x="72" y="88" width="112" height="48" rx="4" fill="#3d6ba8"/>
  <rect x="80" y="96" width="96" height="32" rx="2" fill="#e8f4f8"/>
  <text x="128" y="122" font-family="Arial, sans-serif" font-size="28" font-weight="bold" fill="#1e3a5f" text-anchor="middle">$</text>
  <rect x="80" y="144" width="20" height="12" rx="2" fill="#e8f4f8"/>
  <rect x="108" y="144" width="20" height="12" rx="2" fill="#e8f4f8"/>
  <rect x="136" y="144" width="20" height="12" rx="2" fill="#e8f4f8"/>
  <rect x="164" y="144" width="20" height="12" rx="2" fill="#e8f4f8"/>
  <rect x="80" y="160" width="20" height="12" rx="2" fill="#e8f4f8"/>
  <rect x="108" y="160" width="20" height="12" rx="2" fill="#e8f4f8"/>
  <rect x="136" y="160" width="20" height="12" rx="2" fill="#e8f4f8"/>
  <rect x="164" y="160" width="40" height="12" rx="2" fill="#4a9eff"/>
  <rect x="88" y="184" width="80" height="16" rx="4" fill="#e8f4f8"/>
</svg>